<svg width="24" height="24" viewBox="0 0 24 24" fill="none" xmlns="http://www.w3.org/2000/svg">
<g clip-path="url(#clip0_4143_2083)">
<g clip-path="url(#clip1_4143_2083)">
<path d="M8.225 7.66875L7.40937 10H16.5906L15.775 7.66875C15.6344 7.26875 15.2563 7 14.8313 7H9.16875C8.74375 7 8.36562 7.26875 8.225 7.66875ZM5.2375 10.15L6.3375 7.00938C6.75938 5.80625 7.89375 5 9.16875 5H14.8313C16.1062 5 17.2406 5.80625 17.6625 7.00938L18.7625 10.15C19.4875 10.45 20 11.1656 20 12V18C20 18.5531 19.5531 19 19 19H18C17.4469 19 17 18.5531 17 18V17H7V18C7 18.5531 6.55312 19 6 19H5C4.44687 19 4 18.5531 4 18V12C4 11.1656 4.5125 10.45 5.2375 10.15ZM8 13.5C8 13.2348 7.89464 12.9804 7.70711 12.7929C7.51957 12.6054 7.26522 12.5 7 12.5C6.73478 12.5 6.48043 12.6054 6.29289 12.7929C6.10536 12.9804 6 13.2348 6 13.5C6 13.7652 6.10536 14.0196 6.29289 14.2071C6.48043 14.3946 6.73478 14.5 7 14.5C7.26522 14.5 7.51957 14.3946 7.70711 14.2071C7.89464 14.0196 8 13.7652 8 13.5ZM17 14.5C17.2652 14.5 17.5196 14.3946 17.7071 14.2071C17.8946 14.0196 18 13.7652 18 13.5C18 13.2348 17.8946 12.9804 17.7071 12.7929C17.5196 12.6054 17.2652 12.5 17 12.5C16.7348 12.5 16.4804 12.6054 16.2929 12.7929C16.1054 12.9804 16 13.2348 16 13.5C16 13.7652 16.1054 14.0196 16.2929 14.2071C16.4804 14.3946 16.7348 14.5 17 14.5Z" fill="white"/>
</g>
</g>
<defs>
<clipPath id="clip0_4143_2083">
<rect width="24" height="24" fill="white"/>
</clipPath>
<clipPath id="clip1_4143_2083">
<rect width="24" height="24" fill="white"/>
</clipPath>
</defs>
</svg>
