<svg width="2" height="10" viewBox="0 0 2 10" fill="none" xmlns="http://www.w3.org/2000/svg">
<path d="M0.830435 7.75072C1.05068 7.75072 1.2619 7.83822 1.41764 7.99395C1.57338 8.14969 1.66087 8.36091 1.66087 8.58116C1.66087 8.8014 1.57338 9.01263 1.41764 9.16836C1.2619 9.3241 1.05068 9.41159 0.830435 9.41159C0.61019 9.41159 0.398965 9.3241 0.243229 9.16836C0.0874918 9.01263 0 8.8014 0 8.58116C0 8.36091 0.0874918 8.14969 0.243229 7.99395C0.398965 7.83822 0.61019 7.75072 0.830435 7.75072ZM0.830435 3.87536C1.05068 3.87536 1.2619 3.96285 1.41764 4.11859C1.57338 4.27433 1.66087 4.48555 1.66087 4.7058C1.66087 4.92604 1.57338 5.13727 1.41764 5.293C1.2619 5.44874 1.05068 5.53623 0.830435 5.53623C0.61019 5.53623 0.398965 5.44874 0.243229 5.293C0.0874918 5.13727 0 4.92604 0 4.7058C0 4.48555 0.0874918 4.27433 0.243229 4.11859C0.398965 3.96285 0.61019 3.87536 0.830435 3.87536ZM0.830435 0C1.05068 0 1.2619 0.087492 1.41764 0.243229C1.57338 0.398965 1.66087 0.61019 1.66087 0.830435C1.66087 1.05068 1.57338 1.2619 1.41764 1.41764C1.2619 1.57338 1.05068 1.66087 0.830435 1.66087C0.61019 1.66087 0.398965 1.57338 0.243229 1.41764C0.0874918 1.2619 0 1.05068 0 0.830435C0 0.61019 0.0874918 0.398965 0.243229 0.243229C0.398965 0.087492 0.61019 0 0.830435 0Z" fill="#667085"/>
</svg>
