<svg width="20" height="20" viewBox="0 0 20 20" fill="none" xmlns="http://www.w3.org/2000/svg">
<path d="M11 17.92C12.8 17.7 14.35 16.95 15.65 15.65C16.95 14.35 17.7 12.8 17.92 11H14.92C14.7 12 14.24 12.84 13.54 13.54C12.84 14.24 12 14.7 11 14.92V17.92ZM8 6H12L15 9H17.92C17.67 7.05 16.79 5.38 15.27 4C13.76 2.66 12 2 10 2C8 2 6.24 2.66 4.73 4C3.21 5.38 2.33 7.05 2.08 9H5L8 6ZM9 17.92V14.92C8 14.7 7.16 14.24 6.46 13.54C5.76 12.84 5.3 12 5.08 11H2.08C2.3 12.77 3.05 14.3 4.35 15.6C5.65 16.9 7.2 17.67 9 17.92ZM10 0C12.75 0 15.1 1 17.05 2.95C19 4.9 20 7.25 20 10C20 12.75 19 15.1 17.05 17.05C15.1 19 12.75 20 10 20C7.25 20 4.9 19 2.95 17.05C1 15.1 0 12.75 0 10C0 7.25 1 4.9 2.95 2.95C4.9 1 7.25 0 10 0Z" fill="white"/>
</svg>
