<svg width="12" height="12" viewBox="0 0 12 12" fill="none" xmlns="http://www.w3.org/2000/svg">
<path d="M5.71885 7.49673C5.77812 7.556 5.84726 7.58563 5.92627 7.58563C6.00529 7.58563 6.07443 7.556 6.13369 7.49673L7.79305 5.83738C7.89182 5.73861 7.91651 5.62996 7.86713 5.51143C7.81774 5.39291 7.72391 5.33364 7.58563 5.33364H4.26692C4.12864 5.33364 4.0348 5.39291 3.98542 5.51143C3.93603 5.62996 3.96073 5.73861 4.0595 5.83738L5.71885 7.49673ZM5.92627 11.8525C5.10647 11.8525 4.33606 11.6969 3.61503 11.3856C2.894 11.0742 2.2668 10.6521 1.73344 10.1191C1.20007 9.58614 0.777923 8.95894 0.466991 8.23752C0.156059 7.51609 0.000395835 6.74568 7.50161e-07 5.92627C-0.000394335 5.10687 0.155269 4.33645 0.466991 3.61503C0.778713 2.8936 1.20086 2.2664 1.73344 1.73343C2.26601 1.20047 2.89321 0.778317 3.61503 0.46699C4.33685 0.155663 5.10726 0 5.92627 0C6.74528 0 7.5157 0.155663 8.23752 0.46699C8.95934 0.778317 9.58654 1.20047 10.1191 1.73343C10.6517 2.2664 11.074 2.8936 11.3861 3.61503C11.6983 4.33645 11.8537 5.10687 11.8525 5.92627C11.8514 6.74568 11.6957 7.51609 11.3856 8.23752C11.0754 8.95894 10.6533 9.58614 10.1191 10.1191C9.58496 10.6521 8.95776 11.0744 8.23752 11.3861C7.51728 11.6979 6.74686 11.8533 5.92627 11.8525Z" fill="#2D2D2D"/>
</svg>
